<?xml version="1.0" encoding="UTF-8" standalone="no"?>
<!-- Created with Inkscape (http://www.inkscape.org/) -->

<svg
   width="90.528847mm"
   height="86.776863mm"
   viewBox="0 0 90.528847 86.776863"
   version="1.1"
   id="svg2817"
   inkscape:version="1.2.1 (9c6d41e410, 2022-07-14)"
   sodipodi:docname="grid.svg"
   inkscape:export-filename="grid.png"
   inkscape:export-xdpi="500"
   inkscape:export-ydpi="500"
   xmlns:inkscape="http://www.inkscape.org/namespaces/inkscape"
   xmlns:sodipodi="http://sodipodi.sourceforge.net/DTD/sodipodi-0.dtd"
   xmlns="http://www.w3.org/2000/svg"
   xmlns:svg="http://www.w3.org/2000/svg">
  <sodipodi:namedview
     id="namedview2819"
     pagecolor="#ffffff"
     bordercolor="#000000"
     borderopacity="0.25"
     inkscape:showpageshadow="2"
     inkscape:pageopacity="0.0"
     inkscape:pagecheckerboard="0"
     inkscape:deskcolor="#d1d1d1"
     inkscape:document-units="mm"
     showgrid="false"
     inkscape:zoom="0.914906"
     inkscape:cx="-116.95191"
     inkscape:cy="273.79862"
     inkscape:window-width="2560"
     inkscape:window-height="1351"
     inkscape:window-x="-9"
     inkscape:window-y="-9"
     inkscape:window-maximized="1"
     inkscape:current-layer="layer1" />
  <defs
     id="defs2814" />
  <g
     inkscape:label="Layer 1"
     inkscape:groupmode="layer"
     id="layer1"
     transform="translate(-51.036452,-76.626169)">
    <polyline
       fill="none"
       opacity="1"
       points="0,0 80,0"
       stroke="#000000"
       stroke-width="5"
       id="polyline712-2"
       transform="matrix(0.53896208,0,0,0.08466035,51.036486,158.11176)" />
    <polyline
       fill="none"
       opacity="1"
       points="0,0 80,0"
       stroke="#000000"
       stroke-width="5"
       id="polyline712-64"
       transform="matrix(0.47546681,0,0,0.08466035,51.036486,153.03214)" />
    <polyline
       fill="none"
       opacity="1"
       points="0,0 80,0"
       stroke="#000000"
       stroke-width="5"
       id="polyline712-4"
       transform="matrix(0.40668216,0,0,0.08466035,51.036486,147.95252)" />
    <polyline
       fill="none"
       opacity="1"
       points="0,0 80,0"
       stroke="#000000"
       stroke-width="5"
       id="polyline712-0"
       transform="matrix(0.34847629,0,0,0.08466035,51.036486,142.8729)" />
    <polyline
       fill="none"
       opacity="1"
       points="0,0 80,0"
       stroke="#000000"
       stroke-width="5"
       id="polyline712-53"
       transform="matrix(0.28498102,0,0,0.08466035,51.036486,137.79328)" />
    <polyline
       fill="none"
       opacity="1"
       points="0,0 80,0"
       stroke="#000000"
       stroke-width="5"
       id="polyline712-9"
       transform="matrix(0.28233538,0,0,0.08466035,51.036486,102.23593)" />
    <polyline
       fill="none"
       opacity="1"
       points="0,0 80,0"
       stroke="#000000"
       stroke-width="5"
       id="polyline712-8"
       style="stroke-width:4.99644;stroke-dasharray:none"
       transform="matrix(0.34583065,0,0,0.08466035,51.036486,97.156309)" />
    <polyline
       fill="none"
       opacity="1"
       points="0,0 80,0"
       stroke="#000000"
       stroke-width="5"
       id="polyline712-6"
       transform="matrix(0.40932591,0,0,0.08466035,51.036486,92.076688)" />
    <polyline
       fill="none"
       opacity="1"
       points="0,0 80,0"
       stroke="#000000"
       stroke-width="5"
       id="polyline712-7"
       transform="matrix(0.47282117,0,0,0.08466035,51.036486,86.997067)" />
    <polyline
       fill="none"
       opacity="1"
       points="0,0 80,0"
       stroke="#000000"
       stroke-width="5"
       id="polyline712-79"
       transform="matrix(0.22148576,0,0,0.08466035,51.036486,132.71366)" />
    <polyline
       fill="none"
       opacity="1"
       points="0,0 80,0"
       stroke="#000000"
       stroke-width="5"
       id="polyline712-59"
       transform="matrix(0.1579905,0,0,0.08466035,51.036486,127.63403)" />
    <polyline
       fill="none"
       opacity="1"
       points="0,0 80,0"
       stroke="#000000"
       stroke-width="5"
       id="polyline712-52"
       transform="matrix(0.08466035,0,0,0.08466035,51.036486,122.55441)" />
    <polyline
       fill="none"
       opacity="1"
       points="0,0 80,0"
       stroke="#000000"
       stroke-width="5"
       id="polyline712-50"
       style="stroke-width:4.99644;stroke-dasharray:none"
       transform="matrix(0.08466035,0,0,0.08466035,51.036486,117.47479)" />
    <polyline
       fill="none"
       opacity="1"
       points="0,0 80,0"
       stroke="#000000"
       stroke-width="5"
       id="polyline712-72"
       transform="matrix(0.15799092,0,0,0.08466035,51.036452,112.39517)" />
    <polyline
       fill="none"
       opacity="1"
       points="0,0 80,0"
       stroke="#000000"
       stroke-width="5"
       id="polyline712-74"
       transform="matrix(0.21884012,0,0,0.08466035,51.036486,107.31555)" />
    <polyline
       fill="none"
       opacity="1"
       points="0,0 80,0"
       stroke="#000000"
       stroke-width="5"
       id="polyline712"
       transform="matrix(0.59981171,0,0,0.08466035,51.036486,76.837825)" />
    <polyline
       fill="none"
       opacity="1"
       points="0,0 80,0"
       stroke="#000000"
       stroke-width="5"
       id="polyline712-5"
       transform="matrix(0.53631644,0,0,0.08466035,51.036486,81.917446)" />
    <polyline
       fill="none"
       opacity="1"
       points="0,0 80,0"
       stroke="#000000"
       stroke-width="5"
       id="polyline1172"
       transform="matrix(0.60245733,0,0,0.08466035,51.036486,163.19138)" />
    <g
       transform="matrix(0,0.08466035,-0.08466035,0,58.384449,110.91347)"
       id="g714-66-2" />
    <polyline
       fill="none"
       opacity="1"
       points="0,0 80,0"
       stroke="#000000"
       stroke-width="5"
       id="polyline712-64-17"
       transform="matrix(0,0.06878474,-0.08466035,0,63.46407,112.18352)" />
    <polyline
       fill="none"
       opacity="1"
       points="0,0 80,0"
       stroke="#000000"
       stroke-width="5"
       id="polyline712-4-88"
       transform="matrix(0,0.13228,-0.08466035,0,68.543691,107.1039)" />
    <polyline
       fill="none"
       opacity="1"
       points="0,0 80,0"
       stroke="#000000"
       stroke-width="5"
       id="polyline712-0-8"
       transform="matrix(0,0.19577526,-0.08466035,0,73.623312,102.02428)" />
    <polyline
       fill="none"
       opacity="1"
       points="0,0 80,0"
       stroke="#000000"
       stroke-width="5"
       id="polyline712-53-2"
       transform="matrix(0,0.25926864,-0.08466035,0,78.702933,96.944807)" />
    <polyline
       fill="none"
       opacity="1"
       points="0,0 80,0"
       stroke="#000000"
       stroke-width="5"
       id="polyline712-9-1"
       transform="matrix(0,0.38625925,-0.08466035,0,114.26028,86.785558)" />
    <polyline
       fill="none"
       opacity="1"
       points="0,0 80,0"
       stroke="#000000"
       stroke-width="5"
       id="polyline712-8-7"
       style="stroke-width:4.99644;stroke-dasharray:none"
       transform="matrix(0,0.32276579,-0.08466035,0,119.3399,91.865035)" />
    <polyline
       fill="none"
       opacity="1"
       points="0,0 80,0"
       stroke="#000000"
       stroke-width="5"
       id="polyline712-6-4"
       transform="matrix(0,0.25926872,-0.08466035,0,124.41952,96.9448)" />
    <polyline
       fill="none"
       opacity="1"
       points="0,0 80,0"
       stroke="#000000"
       stroke-width="5"
       id="polyline712-7-38"
       transform="matrix(0,0.19577526,-0.08466035,0,129.49914,102.02428)" />
    <polyline
       fill="none"
       opacity="1"
       points="0,0 80,0"
       stroke="#000000"
       stroke-width="5"
       id="polyline712-79-7"
       transform="matrix(0,0.32276579,-0.08466035,0,83.782554,91.865035)" />
    <polyline
       fill="none"
       opacity="1"
       points="0,0 80,0"
       stroke="#000000"
       stroke-width="5"
       id="polyline712-59-20"
       transform="matrix(0,0.38626105,-0.08466035,0,88.862175,86.785414)" />
    <polyline
       fill="none"
       opacity="1"
       points="0,0 80,0"
       stroke="#000000"
       stroke-width="5"
       id="polyline712-52-0"
       transform="matrix(0,0.44975631,-0.08466035,0,93.941796,81.705793)" />
    <polyline
       fill="none"
       opacity="1"
       points="0,0 80,0"
       stroke="#000000"
       stroke-width="5"
       id="polyline712-50-0"
       style="stroke-width:4.99644;stroke-dasharray:none"
       transform="matrix(0,0.51325158,-0.08466035,0,99.021417,76.626172)" />
    <polyline
       fill="none"
       opacity="1"
       points="0,0 80,0"
       stroke="#000000"
       stroke-width="5"
       id="polyline712-72-9"
       transform="matrix(0,0.51325072,-0.08466035,0,104.10104,76.62621)" />
    <polyline
       fill="none"
       opacity="1"
       points="0,0 80,0"
       stroke="#000000"
       stroke-width="5"
       id="polyline712-74-32"
       transform="matrix(0,0.44975631,-0.08466035,0,109.18066,81.705793)" />
    <polyline
       fill="none"
       opacity="1"
       points="0,0 80,0"
       stroke="#000000"
       stroke-width="5"
       id="polyline712-76"
       transform="matrix(0,0.06878474,-0.08466035,0,139.65839,112.18352)" />
    <polyline
       fill="none"
       opacity="1"
       points="0,0 80,0"
       stroke="#000000"
       stroke-width="5"
       id="polyline712-5-80"
       transform="matrix(0,0.13228,-0.08466035,0,134.57876,107.1039)" />
    <polyline
       fill="none"
       opacity="1"
       points="0,0 80,0"
       stroke="#000000"
       stroke-width="5"
       id="polyline712-2-0"
       transform="matrix(0.40745359,0,0,0.08466035,108.96901,158.11176)" />
    <polyline
       fill="none"
       opacity="1"
       points="0,0 80,0"
       stroke="#000000"
       stroke-width="5"
       id="polyline712-64-1"
       transform="matrix(0.34395832,0,0,0.08466035,114.04863,153.03213)" />
    <polyline
       fill="none"
       opacity="1"
       points="0,0 80,0"
       stroke="#000000"
       stroke-width="5"
       id="polyline712-4-8"
       transform="matrix(0.28046305,0,0,0.08466035,119.12825,147.95251)" />
    <polyline
       fill="none"
       opacity="1"
       points="0,0 80,0"
       stroke="#000000"
       stroke-width="5"
       id="polyline712-0-0"
       transform="matrix(0.21696778,0,0,0.08466035,124.20787,142.87289)" />
    <polyline
       fill="none"
       opacity="1"
       points="0,0 80,0"
       stroke="#000000"
       stroke-width="5"
       id="polyline712-53-63"
       transform="matrix(0.15347253,0,0,0.08466035,129.2875,137.79327)" />
    <polyline
       fill="none"
       opacity="1"
       points="0,0 80,0"
       stroke="#000000"
       stroke-width="5"
       id="polyline712-9-52"
       transform="matrix(0.15082689,0,0,0.08466035,129.49915,102.23592)" />
    <polyline
       fill="none"
       opacity="1"
       points="0,0 80,0"
       stroke="#000000"
       stroke-width="5"
       id="polyline712-8-3"
       transform="matrix(0.21432216,0,0,0.08466035,124.41952,97.156304)" />
    <polyline
       fill="none"
       opacity="1"
       points="0,0 80,0"
       stroke="#000000"
       stroke-width="5"
       id="polyline712-6-6"
       transform="matrix(0.27781742,0,0,0.08466035,119.3399,92.076683)" />
    <polyline
       fill="none"
       opacity="1"
       points="0,0 80,0"
       stroke="#000000"
       stroke-width="5"
       id="polyline712-7-0"
       transform="matrix(0.34131269,0,0,0.08466035,114.26028,86.997062)" />
    <polyline
       fill="none"
       opacity="1"
       points="0,0 80,0"
       stroke="#000000"
       stroke-width="5"
       id="polyline712-79-8"
       transform="matrix(0.08997727,0,0,0.08466035,134.36712,132.71365)" />
    <polyline
       fill="none"
       opacity="1"
       points="0,0 80,0"
       stroke="#000000"
       stroke-width="5"
       id="polyline712-59-5"
       transform="matrix(0.02383637,0,0,0.08466035,139.65839,127.63403)" />
    <g
       transform="matrix(0.08466035,0,0,0.08466035,134.79247,122.55441)"
       id="g714-9-9" />
    <g
       transform="matrix(0.08466035,0,0,0.08466035,134.79247,117.47479)"
       id="g714-37-0" />
    <polyline
       fill="none"
       opacity="1"
       points="0,0 80,0"
       stroke="#000000"
       stroke-width="5"
       id="polyline712-72-3"
       transform="matrix(0.02383637,0,0,0.08466035,139.65839,112.39517)" />
    <polyline
       fill="none"
       opacity="1"
       points="0,0 80,0"
       stroke="#000000"
       stroke-width="5"
       id="polyline712-74-4"
       transform="matrix(0.08733163,0,0,0.08466035,134.57877,107.31555)" />
    <polyline
       fill="none"
       opacity="1"
       points="0,0 80,0"
       stroke="#000000"
       stroke-width="5"
       id="polyline712-33"
       transform="matrix(0.46830321,0,0,0.08466035,104.10104,76.83782)" />
    <polyline
       fill="none"
       opacity="1"
       points="0,0 80,0"
       stroke="#000000"
       stroke-width="5"
       id="polyline712-5-0"
       transform="matrix(0.40480795,0,0,0.08466035,109.18066,81.917441)" />
    <polyline
       fill="none"
       opacity="1"
       points="0,0 80,0"
       stroke="#000000"
       stroke-width="5"
       id="polyline1172-5"
       transform="matrix(0.47094696,0,0,0.08466035,103.88954,163.19138)" />
    <g
       transform="matrix(0,-0.08466035,0.08466035,0,144.73801,129.10715)"
       id="g2029" />
    <polyline
       fill="none"
       opacity="1"
       points="0,0 80,0"
       stroke="#000000"
       stroke-width="5"
       id="polyline2031"
       transform="matrix(0,-0.06878474,0.08466035,0,139.65839,127.8451)" />
    <polyline
       fill="none"
       opacity="1"
       points="0,0 80,0"
       stroke="#000000"
       stroke-width="5"
       id="polyline2035"
       transform="matrix(0,-0.13228,0.08466035,0,134.57877,132.91672)" />
    <polyline
       fill="none"
       opacity="1"
       points="0,0 80,0"
       stroke="#000000"
       stroke-width="5"
       id="polyline2039"
       transform="matrix(0,-0.19577526,0.08466035,0,129.49915,137.99634)" />
    <polyline
       fill="none"
       opacity="1"
       points="0,0 80,0"
       stroke="#000000"
       stroke-width="5"
       id="polyline2043"
       transform="matrix(0,-0.25926864,0.08466035,0,124.41953,143.07581)" />
    <polyline
       fill="none"
       opacity="1"
       points="0,0 80,0"
       stroke="#000000"
       stroke-width="5"
       id="polyline2047"
       transform="matrix(0,-0.38625925,0.08466035,0,88.86218,153.23506)" />
    <polyline
       fill="none"
       opacity="1"
       points="0,0 80,0"
       stroke="#000000"
       stroke-width="5"
       id="polyline2051"
       style="stroke-width:4.99644;stroke-dasharray:none"
       transform="matrix(0,-0.32276579,0.08466035,0,83.782559,148.15558)" />
    <polyline
       fill="none"
       opacity="1"
       points="0,0 80,0"
       stroke="#000000"
       stroke-width="5"
       id="polyline2055"
       transform="matrix(0,-0.25926872,0.08466035,0,78.702938,143.07582)" />
    <polyline
       fill="none"
       opacity="1"
       points="0,0 80,0"
       stroke="#000000"
       stroke-width="5"
       id="polyline2059"
       transform="matrix(0,-0.19577526,0.08466035,0,73.623317,137.99634)" />
    <polyline
       fill="none"
       opacity="1"
       points="0,0 80,0"
       stroke="#000000"
       stroke-width="5"
       id="polyline2063"
       transform="matrix(0,-0.32276579,0.08466035,0,119.33991,148.15558)" />
    <polyline
       fill="none"
       opacity="1"
       points="0,0 80,0"
       stroke="#000000"
       stroke-width="5"
       id="polyline2067"
       transform="matrix(0,-0.38626105,0.08466035,0,114.26028,153.23521)" />
    <polyline
       fill="none"
       opacity="1"
       points="0,0 80,0"
       stroke="#000000"
       stroke-width="5"
       id="polyline2071"
       transform="matrix(0,-0.44975631,0.08466035,0,109.18066,158.31483)" />
    <polyline
       fill="none"
       opacity="1"
       points="0,0 80,0"
       stroke="#000000"
       stroke-width="5"
       id="polyline2075"
       style="stroke-width:4.99644;stroke-dasharray:none"
       transform="matrix(0,-0.51325158,0.08466035,0,104.10104,163.39445)" />
    <polyline
       fill="none"
       opacity="1"
       points="0,0 80,0"
       stroke="#000000"
       stroke-width="5"
       id="polyline2079"
       transform="matrix(0,-0.51325072,0.08466035,0,99.021422,163.39441)" />
    <polyline
       fill="none"
       opacity="1"
       points="0,0 80,0"
       stroke="#000000"
       stroke-width="5"
       id="polyline2083"
       transform="matrix(0,-0.44975631,0.08466035,0,93.941801,158.31483)" />
    <polyline
       fill="none"
       opacity="1"
       points="0,0 80,0"
       stroke="#000000"
       stroke-width="5"
       id="polyline2087"
       transform="matrix(0,-0.06878474,0.08466035,0,63.464075,127.8371)" />
    <polyline
       fill="none"
       opacity="1"
       points="0,0 80,0"
       stroke="#000000"
       stroke-width="5"
       id="polyline2091"
       transform="matrix(0,-0.13228,0.08466035,0,68.543696,132.91672)" />
  </g>
</svg>
